<svg width="20" height="20" viewBox="0 0 20 20" fill="none" xmlns="http://www.w3.org/2000/svg">
<path fill-rule="evenodd" clip-rule="evenodd" d="M10 0C15.5228 0 20 4.47715 20 10C20 15.5228 15.5228 20 10 20C4.47715 20 0 15.5228 0 10C0 4.47715 4.47715 0 10 0ZM10.366 11.366L6.89708 17.376C7.85124 17.7779 8.8997 18 10 18C10.4622 18 10.9152 17.9608 11.3559 17.8856C11.0984 16.0632 11.3411 14.1601 12.1404 12.3917L10.366 11.366ZM13.2969 17.2905C13.1671 15.9943 13.3519 14.6567 13.8835 13.3974L16.3745 14.8346C15.5737 15.8888 14.5173 16.7384 13.2969 17.2905ZM6.85855 9.3422C5.7265 10.919 4.1993 12.0809 2.49366 12.7699C3.0255 14.2135 3.96211 15.4604 5.16543 16.3745L8.634 10.366L6.85855 9.3422ZM17.7038 9.3328L17.9616 9.2111C17.987 9.4706 18 9.7338 18 10C18 11.1007 17.7777 12.1495 17.3756 13.1039L14.8834 11.6653C15.6478 10.6548 16.6197 9.8687 17.7038 9.3328ZM2 10C2 10.2662 2.013 10.5294 2.03841 10.7889C3.22626 10.2534 4.29168 9.4249 5.11596 8.3355L2.62402 6.89708C2.22214 7.85124 2 8.8997 2 10ZM11.366 9.634L14.8346 3.62552L15.0884 3.82653C16.1702 4.71922 17.0134 5.89068 17.5073 7.22969C15.8009 7.91878 14.2731 9.0812 13.1407 10.6588L11.366 9.634ZM10 2C9.5375 2 9.0841 2.03925 8.6431 2.1146C8.9016 3.93748 8.6588 5.8408 7.85915 7.60931L9.634 8.634L13.1029 2.62402C12.1488 2.22214 11.1003 2 10 2ZM6.51189 2.79845L6.70313 2.70955C6.83295 4.00607 6.64798 5.34403 6.11608 6.60349L3.62552 5.16543C4.38436 4.16644 5.37266 3.35126 6.51189 2.79845Z" fill="#8A8A8A"/>
</svg>
