<svg width="21" height="21" viewBox="0 0 21 21" fill="none" xmlns="http://www.w3.org/2000/svg">
<path fill-rule="evenodd" clip-rule="evenodd" d="M8 12C4.685 12 2 9.315 2 6C2 2.685 4.685 0 8 0C11.315 0 14 2.685 14 6C14 9.315 11.315 12 8 12ZM0 21C0 16.5817 3.58172 13 8 13C12.4183 13 16 16.5817 16 21H14C14 17.6863 11.3137 15 8 15C4.68629 15 2 17.6863 2 21H0ZM12 6C12 8.21 10.21 10 8 10C5.79 10 4 8.21 4 6C4 3.79 5.79 2 8 2C10.21 2 12 3.79 12 6ZM16.2837 13.7028C19.0644 14.9561 21 17.752 21 21H19C19 18.564 17.5483 16.4671 15.4628 15.5271L16.2837 13.7028ZM19 7.5C19 5.20361 17.5944 3.23703 15.5962 2.41321L15.041 4.35635C16.2016 4.92603 17 6.11935 17 7.5C17 9.264 15.6967 10.7222 14 10.9646V12.9776C16.8042 12.7252 19 10.3702 19 7.5Z" fill="#8A8A8A"/>
</svg>
